<svg width="785" height="370" viewBox="0 0 785 370" fill="none" xmlns="http://www.w3.org/2000/svg">
<path d="M459.95 42.91C460.83 45.9167 461.783 49.3267 462.81 53.14C463.91 56.88 465.047 60.7667 466.22 64.8C467.467 68.8333 468.713 72.8667 469.96 76.9C471.207 80.9333 472.417 84.6733 473.59 88.12C474.543 84.38 475.497 80.31 476.45 75.91C477.477 71.51 478.43 66.9633 479.31 62.27C480.19 57.5767 481.033 52.92 481.84 48.3C482.72 43.6067 483.527 39.0967 484.26 34.77H502.08C499.513 47.53 496.543 60.4733 493.17 73.6C489.87 86.7267 486.277 99.1933 482.39 111H466.66C464.093 103.96 461.6 96.59 459.18 88.89C456.76 81.1167 454.377 73.3433 452.03 65.57C449.683 73.3433 447.337 81.1167 444.99 88.89C442.643 96.59 440.187 103.96 437.62 111H421.89C418.003 99.1933 414.373 86.7267 411 73.6C407.7 60.4733 404.767 47.53 402.2 34.77H420.79C421.523 39.0967 422.33 43.6067 423.21 48.3C424.09 52.92 425.007 57.5767 425.96 62.27C426.913 66.9633 427.867 71.51 428.82 75.91C429.847 80.31 430.873 84.38 431.9 88.12C433.22 84.5267 434.503 80.7133 435.75 76.68C436.997 72.6467 438.207 68.6133 439.38 64.58C440.553 60.5467 441.617 56.66 442.57 52.92C443.597 49.18 444.513 45.8433 445.32 42.91H459.95ZM506.704 82.51C506.704 77.3767 507.474 72.9033 509.014 69.09C510.628 65.2033 512.718 61.9767 515.284 59.41C517.851 56.8433 520.784 54.9 524.084 53.58C527.458 52.26 530.904 51.6 534.424 51.6C542.638 51.6 549.128 54.13 553.894 59.19C558.661 64.1767 561.044 71.5467 561.044 81.3C561.044 82.2533 561.008 83.3167 560.934 84.49C560.861 85.59 560.788 86.58 560.714 87.46H523.534C523.901 90.8333 525.478 93.51 528.264 95.49C531.051 97.47 534.791 98.46 539.484 98.46C542.491 98.46 545.424 98.2033 548.284 97.69C551.218 97.1033 553.601 96.4067 555.434 95.6L557.634 108.91C556.754 109.35 555.581 109.79 554.114 110.23C552.648 110.67 550.998 111.037 549.164 111.33C547.404 111.697 545.498 111.99 543.444 112.21C541.391 112.43 539.338 112.54 537.284 112.54C532.078 112.54 527.531 111.77 523.644 110.23C519.831 108.69 516.641 106.6 514.074 103.96C511.581 101.247 509.711 98.0567 508.464 94.39C507.291 90.7233 506.704 86.7633 506.704 82.51ZM545.204 76.24C545.131 74.8467 544.874 73.49 544.434 72.17C544.068 70.85 543.444 69.6767 542.564 68.65C541.758 67.6233 540.694 66.78 539.374 66.12C538.128 65.46 536.551 65.13 534.644 65.13C532.811 65.13 531.234 65.46 529.914 66.12C528.594 66.7067 527.494 67.5133 526.614 68.54C525.734 69.5667 525.038 70.7767 524.524 72.17C524.084 73.49 523.754 74.8467 523.534 76.24H545.204ZM611.863 81.63C611.863 71.07 607.976 65.79 600.203 65.79C598.516 65.79 596.829 66.01 595.143 66.45C593.529 66.89 592.209 67.44 591.183 68.1V97.91C591.989 98.0567 593.016 98.2033 594.263 98.35C595.509 98.4233 596.866 98.46 598.333 98.46C602.806 98.46 606.179 96.92 608.453 93.84C610.726 90.76 611.863 86.69 611.863 81.63ZM628.583 82.07C628.583 86.69 627.886 90.87 626.493 94.61C625.173 98.35 623.229 101.54 620.663 104.18C618.096 106.82 614.943 108.873 611.203 110.34C607.463 111.733 603.209 112.43 598.443 112.43C596.463 112.43 594.373 112.32 592.173 112.1C590.046 111.953 587.919 111.733 585.793 111.44C583.739 111.147 581.759 110.817 579.853 110.45C577.946 110.01 576.259 109.57 574.793 109.13V28.28L591.183 25.64V54.46C593.016 53.6533 594.923 53.03 596.903 52.59C598.883 52.15 601.009 51.93 603.283 51.93C607.389 51.93 611.019 52.6633 614.173 54.13C617.326 55.5233 619.966 57.54 622.093 60.18C624.219 62.82 625.833 66.01 626.933 69.75C628.033 73.4167 628.583 77.5233 628.583 82.07ZM638.618 70.74H670.518V85.59H638.618V70.74ZM421.67 191.63C421.67 196.69 422.807 200.76 425.08 203.84C427.353 206.92 430.727 208.46 435.2 208.46C436.667 208.46 438.023 208.423 439.27 208.35C440.517 208.203 441.543 208.057 442.35 207.91V178.1C441.323 177.44 439.967 176.89 438.28 176.45C436.667 176.01 435.017 175.79 433.33 175.79C425.557 175.79 421.67 181.07 421.67 191.63ZM458.74 219.13C457.273 219.57 455.587 220.01 453.68 220.45C451.773 220.817 449.757 221.147 447.63 221.44C445.577 221.733 443.45 221.953 441.25 222.1C439.123 222.32 437.07 222.43 435.09 222.43C430.323 222.43 426.07 221.733 422.33 220.34C418.59 218.947 415.437 216.967 412.87 214.4C410.303 211.76 408.323 208.607 406.93 204.94C405.61 201.2 404.95 197.02 404.95 192.4C404.95 187.707 405.537 183.49 406.71 179.75C407.883 175.937 409.57 172.71 411.77 170.07C413.97 167.43 416.647 165.413 419.8 164.02C423.027 162.627 426.693 161.93 430.8 161.93C433.073 161.93 435.09 162.15 436.85 162.59C438.683 163.03 440.517 163.653 442.35 164.46V138.28L458.74 135.64V219.13ZM472.437 192.51C472.437 187.377 473.207 182.903 474.747 179.09C476.36 175.203 478.45 171.977 481.017 169.41C483.583 166.843 486.517 164.9 489.817 163.58C493.19 162.26 496.637 161.6 500.157 161.6C508.37 161.6 514.86 164.13 519.627 169.19C524.393 174.177 526.777 181.547 526.777 191.3C526.777 192.253 526.74 193.317 526.667 194.49C526.593 195.59 526.52 196.58 526.447 197.46H489.267C489.633 200.833 491.21 203.51 493.997 205.49C496.783 207.47 500.523 208.46 505.217 208.46C508.223 208.46 511.157 208.203 514.017 207.69C516.95 207.103 519.333 206.407 521.167 205.6L523.367 218.91C522.487 219.35 521.313 219.79 519.847 220.23C518.38 220.67 516.73 221.037 514.897 221.33C513.137 221.697 511.23 221.99 509.177 222.21C507.123 222.43 505.07 222.54 503.017 222.54C497.81 222.54 493.263 221.77 489.377 220.23C485.563 218.69 482.373 216.6 479.807 213.96C477.313 211.247 475.443 208.057 474.197 204.39C473.023 200.723 472.437 196.763 472.437 192.51ZM510.937 186.24C510.863 184.847 510.607 183.49 510.167 182.17C509.8 180.85 509.177 179.677 508.297 178.65C507.49 177.623 506.427 176.78 505.107 176.12C503.86 175.46 502.283 175.13 500.377 175.13C498.543 175.13 496.967 175.46 495.647 176.12C494.327 176.707 493.227 177.513 492.347 178.54C491.467 179.567 490.77 180.777 490.257 182.17C489.817 183.49 489.487 184.847 489.267 186.24H510.937ZM557.135 209.23C560.142 209.23 562.268 208.937 563.515 208.35C564.762 207.763 565.385 206.627 565.385 204.94C565.385 203.62 564.578 202.483 562.965 201.53C561.352 200.503 558.895 199.367 555.595 198.12C553.028 197.167 550.682 196.177 548.555 195.15C546.502 194.123 544.742 192.913 543.275 191.52C541.808 190.053 540.672 188.33 539.865 186.35C539.058 184.37 538.655 181.987 538.655 179.2C538.655 173.773 540.672 169.483 544.705 166.33C548.738 163.177 554.275 161.6 561.315 161.6C564.835 161.6 568.208 161.93 571.435 162.59C574.662 163.177 577.228 163.837 579.135 164.57L576.275 177.33C574.368 176.67 572.278 176.083 570.005 175.57C567.805 175.057 565.312 174.8 562.525 174.8C557.392 174.8 554.825 176.23 554.825 179.09C554.825 179.75 554.935 180.337 555.155 180.85C555.375 181.363 555.815 181.877 556.475 182.39C557.135 182.83 558.015 183.343 559.115 183.93C560.288 184.443 561.755 185.03 563.515 185.69C567.108 187.01 570.078 188.33 572.425 189.65C574.772 190.897 576.605 192.29 577.925 193.83C579.318 195.297 580.272 196.947 580.785 198.78C581.372 200.613 581.665 202.74 581.665 205.16C581.665 210.88 579.502 215.207 575.175 218.14C570.922 221.073 564.872 222.54 557.025 222.54C551.892 222.54 547.602 222.1 544.155 221.22C540.782 220.34 538.435 219.607 537.115 219.02L539.865 205.71C542.652 206.81 545.512 207.69 548.445 208.35C551.378 208.937 554.275 209.23 557.135 209.23ZM611.404 221H595.014V163.14H611.404V221ZM612.944 146.42C612.944 149.427 611.954 151.81 609.974 153.57C608.067 155.257 605.794 156.1 603.154 156.1C600.514 156.1 598.204 155.257 596.224 153.57C594.317 151.81 593.364 149.427 593.364 146.42C593.364 143.413 594.317 141.067 596.224 139.38C598.204 137.62 600.514 136.74 603.154 136.74C605.794 136.74 608.067 137.62 609.974 139.38C611.954 141.067 612.944 143.413 612.944 146.42ZM641.881 190.2C641.881 199.367 645.584 203.95 652.991 203.95C654.677 203.95 656.254 203.73 657.721 203.29C659.187 202.85 660.434 202.337 661.461 201.75V175.57C660.654 175.423 659.701 175.313 658.601 175.24C657.501 175.093 656.217 175.02 654.751 175.02C650.424 175.02 647.197 176.45 645.071 179.31C642.944 182.17 641.881 185.8 641.881 190.2ZM677.851 213.74C677.851 223.2 675.431 230.203 670.591 234.75C665.824 239.37 658.417 241.68 648.371 241.68C644.851 241.68 641.331 241.35 637.811 240.69C634.291 240.103 631.027 239.297 628.021 238.27L630.881 224.52C633.447 225.547 636.124 226.353 638.911 226.94C641.771 227.527 644.997 227.82 648.591 227.82C653.284 227.82 656.584 226.793 658.491 224.74C660.471 222.687 661.461 220.047 661.461 216.82V214.73C659.701 215.537 657.867 216.16 655.961 216.6C654.127 216.967 652.111 217.15 649.911 217.15C641.917 217.15 635.794 214.803 631.541 210.11C627.287 205.343 625.161 198.707 625.161 190.2C625.161 185.947 625.821 182.097 627.141 178.65C628.461 175.13 630.367 172.123 632.861 169.63C635.427 167.137 638.544 165.23 642.211 163.91C645.877 162.517 650.021 161.82 654.641 161.82C656.621 161.82 658.637 161.93 660.691 162.15C662.817 162.297 664.907 162.517 666.961 162.81C669.014 163.103 670.957 163.47 672.791 163.91C674.697 164.277 676.384 164.68 677.851 165.12V213.74ZM694.323 165.12C697.11 164.313 700.703 163.58 705.103 162.92C709.503 162.187 714.123 161.82 718.963 161.82C723.876 161.82 727.946 162.48 731.173 163.8C734.473 165.047 737.076 166.843 738.983 169.19C740.89 171.537 742.246 174.323 743.053 177.55C743.86 180.777 744.263 184.37 744.263 188.33V221H727.873V190.31C727.873 185.03 727.176 181.29 725.783 179.09C724.39 176.89 721.786 175.79 717.973 175.79C716.8 175.79 715.553 175.863 714.233 176.01C712.913 176.083 711.74 176.193 710.713 176.34V221H694.323V165.12ZM776.258 212.31C776.258 215.61 775.195 218.14 773.068 219.9C771.015 221.587 768.668 222.43 766.028 222.43C763.388 222.43 761.005 221.587 758.878 219.9C756.825 218.14 755.798 215.61 755.798 212.31C755.798 209.01 756.825 206.517 758.878 204.83C761.005 203.07 763.388 202.19 766.028 202.19C768.668 202.19 771.015 203.07 773.068 204.83C775.195 206.517 776.258 209.01 776.258 212.31ZM429.59 317.91C432.01 317.91 433.99 317.727 435.53 317.36C437.143 316.92 438.427 316.37 439.38 315.71C440.333 314.977 440.993 314.133 441.36 313.18C441.727 312.227 441.91 311.163 441.91 309.99C441.91 307.497 440.737 305.443 438.39 303.83C436.043 302.143 432.01 300.347 426.29 298.44C423.797 297.56 421.303 296.57 418.81 295.47C416.317 294.297 414.08 292.867 412.1 291.18C410.12 289.42 408.507 287.33 407.26 284.91C406.013 282.417 405.39 279.41 405.39 275.89C405.39 272.37 406.05 269.217 407.37 266.43C408.69 263.57 410.56 261.15 412.98 259.17C415.4 257.19 418.333 255.687 421.78 254.66C425.227 253.56 429.113 253.01 433.44 253.01C438.573 253.01 443.01 253.56 446.75 254.66C450.49 255.76 453.57 256.97 455.99 258.29L451.04 271.82C448.913 270.72 446.53 269.767 443.89 268.96C441.323 268.08 438.207 267.64 434.54 267.64C430.433 267.64 427.463 268.227 425.63 269.4C423.87 270.5 422.99 272.223 422.99 274.57C422.99 275.963 423.32 277.137 423.98 278.09C424.64 279.043 425.557 279.923 426.73 280.73C427.977 281.463 429.37 282.16 430.91 282.82C432.523 283.407 434.283 284.03 436.19 284.69C440.15 286.157 443.597 287.623 446.53 289.09C449.463 290.483 451.883 292.133 453.79 294.04C455.77 295.947 457.237 298.183 458.19 300.75C459.143 303.317 459.62 306.433 459.62 310.1C459.62 317.213 457.127 322.75 452.14 326.71C447.153 330.597 439.637 332.54 429.59 332.54C426.217 332.54 423.173 332.32 420.46 331.88C417.747 331.513 415.327 331.037 413.2 330.45C411.147 329.863 409.35 329.24 407.81 328.58C406.343 327.92 405.097 327.297 404.07 326.71L408.91 313.07C411.183 314.317 413.97 315.453 417.27 316.48C420.643 317.433 424.75 317.91 429.59 317.91ZM496.803 253.89C508.17 253.89 516.897 255.907 522.983 259.94C529.07 263.9 532.113 270.427 532.113 279.52C532.113 288.687 529.033 295.323 522.873 299.43C516.713 303.463 507.913 305.48 496.473 305.48H491.083V331H473.923V255.87C477.663 255.137 481.623 254.623 485.803 254.33C489.983 254.037 493.65 253.89 496.803 253.89ZM497.903 268.52C496.657 268.52 495.41 268.557 494.163 268.63C492.99 268.703 491.963 268.777 491.083 268.85V290.85H496.473C502.413 290.85 506.887 290.043 509.893 288.43C512.9 286.817 514.403 283.81 514.403 279.41C514.403 277.283 514 275.523 513.193 274.13C512.46 272.737 511.36 271.637 509.893 270.83C508.5 269.95 506.777 269.363 504.723 269.07C502.67 268.703 500.397 268.52 497.903 268.52ZM581.784 301.63C581.784 291.07 577.898 285.79 570.124 285.79C568.438 285.79 566.751 286.01 565.064 286.45C563.451 286.89 562.131 287.44 561.104 288.1V317.91C561.911 318.057 562.938 318.203 564.184 318.35C565.431 318.423 566.788 318.46 568.254 318.46C572.728 318.46 576.101 316.92 578.374 313.84C580.648 310.76 581.784 306.69 581.784 301.63ZM598.504 302.07C598.504 306.69 597.808 310.87 596.414 314.61C595.094 318.35 593.151 321.54 590.584 324.18C588.018 326.82 584.864 328.873 581.124 330.34C577.384 331.733 573.131 332.43 568.364 332.43C566.384 332.43 564.294 332.32 562.094 332.1C559.968 331.953 557.841 331.733 555.714 331.44C553.661 331.147 551.681 330.817 549.774 330.45C547.868 330.01 546.181 329.57 544.714 329.13V248.28L561.104 245.64V274.46C562.938 273.653 564.844 273.03 566.824 272.59C568.804 272.15 570.931 271.93 573.204 271.93C577.311 271.93 580.941 272.663 584.094 274.13C587.248 275.523 589.888 277.54 592.014 280.18C594.141 282.82 595.754 286.01 596.854 289.75C597.954 293.417 598.504 297.523 598.504 302.07Z" fill="#26D9CD"/>
<circle cx="180" cy="190" r="180" fill="#26D9CD"/>
<path d="M268.165 284.999C267.989 285.443 267.108 287.928 266.228 290.591C261.738 304.613 254.08 321.12 247.653 330.35C243.956 335.675 243.075 337.627 244.396 337.627C245.628 337.627 261.915 328.397 267.989 324.315C278.817 316.949 300.121 297.868 300.121 295.56C300.121 294.407 296.952 293.076 282.074 287.839C272.567 284.467 268.869 283.757 268.165 284.999Z" fill="#121212"/>
<path d="M191.576 272.575C191.224 272.841 190.96 290.235 190.96 311.18V349.165H193.425C197.65 349.165 205.133 344.638 212.352 337.716C226.349 324.226 235.065 309.938 243.78 285.887L246.333 278.964L244.396 278.254C241.227 277.012 217.898 273.817 205.045 272.841C190.96 271.776 192.28 271.776 191.576 272.575Z" fill="#121212"/>
<path d="M156.451 272.93C137.435 274.261 113.49 277.722 113.49 279.142C113.49 280.828 120.973 298.667 125.287 307.541C135.587 328.397 147.735 342.065 161.116 348.277C168.159 351.472 167.719 352.448 168.247 330.705C168.863 306.832 167.983 272.575 166.75 272.397C166.31 272.308 161.645 272.486 156.451 272.93Z" fill="#121212"/>
<path d="M88.4017 284.822C87.9615 284.999 83.2078 286.508 77.8377 288.194C72.5558 289.969 66.2174 292.188 63.9285 293.164C60.3192 294.762 59.879 295.205 60.5833 296.625C61.9918 299.288 78.1899 314.553 85.3206 319.966C95.6204 327.776 115.604 339.402 116.66 338.249C116.924 337.982 114.9 334.61 112.259 330.616C109.706 326.711 106.008 320.321 104.248 316.594C101.167 310.115 93.2435 290.679 91.923 286.331C91.3948 284.467 90.5145 284.112 88.4017 284.822Z" fill="#121212"/>
<path d="M308.484 200.954L282.074 201.398L280.577 216.929C279.697 225.449 278.024 238.318 276.792 245.506C275.559 252.695 274.591 259.351 274.591 260.15C274.591 261.303 275.999 262.191 280.137 263.345C286.915 265.386 300.385 270.356 308.307 273.906C311.565 275.326 314.646 276.213 315.086 275.947C316.495 275.06 323.713 261.037 327.939 251.009C333.045 238.673 336.742 226.07 338.503 215.065C340.263 203.528 339.999 200.511 337.094 200.511C335.862 200.511 323.009 200.688 308.484 200.954Z" fill="#121212"/>
<path d="M190.96 224.917V248.879L192.985 249.234C194.041 249.411 200.908 250.032 208.302 250.476C215.609 251.009 228.022 252.517 235.769 253.849C243.516 255.18 250.382 255.979 251.087 255.712C253.023 255.002 257.161 228.91 258.481 209.119L259.01 200.954H225.029H190.96V224.917Z" fill="#121212"/>
<path d="M100.639 202.286C99.318 205.747 105.304 253.316 107.329 255.446C107.769 255.89 113.491 255.446 120.71 254.381C127.665 253.316 140.606 251.807 149.585 251.009C158.564 250.21 166.399 249.411 167.015 249.234C167.808 248.967 168.072 243.376 168.072 224.917V200.954H134.619C105.744 200.954 101.079 201.132 100.639 202.286Z" fill="#121212"/>
<path d="M20.3521 201.664C18.9435 205.392 23.0811 227.757 27.6588 241.779C30.5639 250.565 39.4552 268.581 43.5928 274.172L45.5295 276.746L51.5157 273.995C58.1182 270.977 79.4222 263.078 80.9188 263.078C81.447 263.078 82.5914 262.723 83.4717 262.28C84.9683 261.481 84.8803 260.593 82.5914 246.482C81.2709 238.318 79.5103 224.739 78.718 216.485C77.9257 208.143 77.1334 201.309 77.0453 201.221C76.9573 201.132 64.2805 200.954 48.8748 200.777C26.1622 200.599 20.7042 200.777 20.3521 201.664Z" fill="#121212"/>
<path d="M308.924 104.84C306.283 106.082 297.744 109.188 289.997 111.851C282.25 114.513 275.648 116.998 275.295 117.353C274.855 117.797 275.383 122.234 276.264 127.382C278.817 141.315 279.961 150.368 281.106 164.568L282.074 177.436L311.037 177.702L340 177.88L339.383 171.046C337.887 153.918 332.341 134.393 324.858 119.661C317.639 105.461 315.879 102.444 314.734 102.532C314.206 102.532 311.565 103.597 308.924 104.84Z" fill="#121212"/>
<path d="M243.34 123.743C233.92 125.252 215.521 127.382 203.725 128.447L191.4 129.512L191.136 153.74L190.96 177.88L224.589 177.702L258.305 177.436L258.569 172.644C259.009 165.011 254.96 129.334 253.023 123.921C252.583 122.767 250.118 122.678 243.34 123.743Z" fill="#121212"/>
<path d="M104.776 134.127C102.223 149.747 101.166 159.065 100.902 169.005L100.726 177.436H134.179H167.631V153.474V129.512L163.23 129.246C152.93 128.713 129.513 126.139 120.357 124.631C105.392 121.968 106.976 120.992 104.776 134.127Z" fill="#121212"/>
<path d="M41.7442 107.236C31.2682 123.832 23.4333 148.06 20.5282 172.821L20 177.88L48.4347 177.702L76.9574 177.436L78.4539 161.994C79.3343 153.474 80.8308 141.759 81.8872 135.813C82.9436 129.867 84 123.211 84.1761 120.992L84.6162 116.91L80.3907 115.756C78.0138 115.135 69.3865 111.851 61.1114 108.478C52.9244 105.195 45.8817 102.444 45.4415 102.444C45.0894 102.444 43.4168 104.573 41.7442 107.236Z" fill="#121212"/>
<path d="M242.371 41.6507C242.635 42.3607 245.012 45.9994 247.653 49.8156C250.206 53.6318 253.992 59.9329 255.928 63.8379C260.154 72.3577 267.549 90.9062 267.549 92.9474C267.549 95.1661 269.925 94.8111 281.018 91.2612C295.983 86.38 300.121 84.6938 300.121 83.3626C300.121 81.1438 278.289 60.9979 269.573 55.1405C261.65 49.8156 244.396 40.3195 242.547 40.3195C242.195 40.3195 242.019 40.9407 242.371 41.6507Z" fill="#121212"/>
<path d="M190.96 68.2753V105.993H197.827C204.869 105.993 230.311 103.242 240.082 101.467L245.628 100.491L245.012 97.6511C242.987 87.7113 232.864 66.6778 224.677 55.1405C215.345 42.1832 200.732 30.5572 193.689 30.5572H190.96V68.2753Z" fill="#121212"/>
<path d="M160.853 31.7997C144.743 38.4559 129.513 58.513 117.54 88.5988C114.987 95.1662 113.667 99.4261 114.195 99.9586C115.604 101.379 142.894 105.106 156.011 105.727L168.071 106.26L167.895 68.2754C167.719 43.8695 167.279 30.2022 166.751 30.0247C166.311 29.8472 163.582 30.646 160.853 31.7997Z" fill="#121212"/>
<path d="M105.128 46.6207C100.286 49.1057 93.6832 52.8331 90.5141 54.9631C83.2073 59.7555 59.7905 80.7889 59.7905 82.5639C59.7905 84.1614 67.5374 87.8001 79.0698 91.705C91.3064 95.7874 90.6021 96.0537 94.4755 85.3151C99.0533 72.7128 105.48 59.4005 111.202 50.5257C113.931 46.3545 116.132 42.7158 116.132 42.5383C116.132 41.3846 113.139 42.5383 105.128 46.6207Z" fill="#121212"/>
<path d="M106.135 225.56L123.335 218.32L124.895 223.16L112.335 228.04L124.895 232.92L123.335 237.76L106.135 230.52V225.56ZM132.39 247.4H126.27L139.71 208.68H145.75L132.39 247.4ZM165.85 230.52L148.65 237.76L147.09 232.92L159.65 228.04L147.09 223.16L148.65 218.32L165.85 225.56V230.52Z" fill="#26D9CD"/>
</svg>
