<svg width="500" height="500" viewBox="0 0 500 500" fill="none" xmlns="http://www.w3.org/2000/svg">
<g clip-path="url(#clip0_51_21)">
<path d="M250 0C388.071 0 500 111.929 500 250C500 388.071 388.071 500 250 500C111.929 500 0 388.071 0 250C0 111.929 111.929 0 250 0ZM250 70C150.589 70 70 150.589 70 250C70 349.411 150.589 430 250 430C349.411 430 430 349.411 430 250C430 150.589 349.411 70 250 70Z" fill="#121212"/>
<circle cx="250" cy="250" r="180" fill="#26D9CD"/>
<path d="M338.165 344.999C337.989 345.443 337.108 347.928 336.228 350.591C331.738 364.613 324.08 381.12 317.653 390.35C313.956 395.675 313.075 397.627 314.396 397.627C315.628 397.627 331.915 388.397 337.989 384.315C348.817 376.949 370.121 357.868 370.121 355.56C370.121 354.407 366.952 353.076 352.074 347.839C342.567 344.467 338.869 343.757 338.165 344.999Z" fill="#121212"/>
<path d="M261.576 332.575C261.224 332.841 260.96 350.235 260.96 371.18V409.165H263.425C267.65 409.165 275.133 404.638 282.352 397.716C296.349 384.226 305.065 369.938 313.78 345.887L316.333 338.964L314.396 338.254C311.227 337.012 287.898 333.817 275.045 332.841C260.96 331.776 262.28 331.776 261.576 332.575Z" fill="#121212"/>
<path d="M226.451 332.93C207.436 334.261 183.491 337.722 183.491 339.142C183.491 340.828 190.973 358.667 195.287 367.541C205.587 388.397 217.735 402.065 231.116 408.277C238.159 411.472 237.719 412.448 238.247 390.705C238.863 366.832 237.983 332.575 236.751 332.397C236.31 332.308 231.645 332.486 226.451 332.93Z" fill="#121212"/>
<path d="M158.402 344.822C157.962 344.999 153.208 346.508 147.838 348.194C142.556 349.969 136.217 352.188 133.929 353.164C130.319 354.762 129.879 355.205 130.583 356.625C131.992 359.288 148.19 374.553 155.321 379.966C165.62 387.776 185.604 399.402 186.66 398.249C186.924 397.982 184.9 394.61 182.259 390.616C179.706 386.711 176.008 380.321 174.248 376.594C171.167 370.115 163.244 350.679 161.923 346.331C161.395 344.467 160.515 344.112 158.402 344.822Z" fill="#121212"/>
<path d="M378.484 260.955L352.074 261.398L350.577 276.929C349.697 285.449 348.024 298.318 346.792 305.506C345.559 312.695 344.591 319.351 344.591 320.15C344.591 321.304 345.999 322.191 350.137 323.345C356.915 325.386 370.385 330.356 378.307 333.906C381.565 335.326 384.646 336.213 385.086 335.947C386.495 335.06 393.713 321.037 397.939 311.009C403.045 298.673 406.742 286.07 408.503 275.066C410.263 263.528 409.999 260.511 407.094 260.511C405.862 260.511 393.009 260.688 378.484 260.955Z" fill="#121212"/>
<path d="M260.96 284.917V308.879L262.985 309.234C264.041 309.411 270.908 310.032 278.302 310.476C285.609 311.009 298.022 312.517 305.769 313.849C313.516 315.18 320.382 315.979 321.087 315.712C323.023 315.002 327.161 288.91 328.481 269.119L329.01 260.954H295.029H260.96V284.917Z" fill="#121212"/>
<path d="M170.639 262.286C169.318 265.747 175.304 313.316 177.329 315.446C177.769 315.89 183.491 315.446 190.71 314.381C197.665 313.316 210.606 311.807 219.585 311.009C228.564 310.21 236.399 309.411 237.015 309.234C237.808 308.967 238.072 303.376 238.072 284.916V260.954H204.619C175.744 260.954 171.079 261.132 170.639 262.286Z" fill="#121212"/>
<path d="M90.3521 261.664C88.9435 265.392 93.0811 287.757 97.6588 301.779C100.564 310.565 109.455 328.581 113.593 334.172L115.53 336.746L121.516 333.995C128.118 330.977 149.422 323.078 150.919 323.078C151.447 323.078 152.591 322.723 153.472 322.28C154.968 321.481 154.88 320.593 152.591 306.482C151.271 298.318 149.51 284.739 148.718 276.485C147.926 268.143 147.133 261.309 147.045 261.221C146.957 261.132 134.281 260.954 118.875 260.777C96.1622 260.599 90.7042 260.777 90.3521 261.664Z" fill="#121212"/>
<path d="M378.924 164.84C376.283 166.082 367.744 169.188 359.997 171.851C352.25 174.513 345.648 176.998 345.295 177.353C344.855 177.797 345.383 182.235 346.264 187.382C348.817 201.315 349.961 210.368 351.106 224.568L352.074 237.436L381.037 237.702L410 237.88L409.383 231.046C407.887 213.918 402.341 194.393 394.858 179.661C387.639 165.461 385.879 162.444 384.734 162.532C384.206 162.532 381.565 163.597 378.924 164.84Z" fill="#121212"/>
<path d="M313.34 183.743C303.92 185.252 285.521 187.382 273.725 188.447L261.4 189.512L261.136 213.74L260.96 237.88L294.589 237.702L328.305 237.436L328.569 232.644C329.009 225.011 324.96 189.334 323.023 183.921C322.583 182.767 320.118 182.678 313.34 183.743Z" fill="#121212"/>
<path d="M174.776 194.127C172.223 209.747 171.166 219.065 170.902 229.005L170.726 237.436H204.179H237.631V213.474V189.512L233.23 189.246C222.93 188.713 199.513 186.139 190.357 184.631C175.392 181.968 176.976 180.992 174.776 194.127Z" fill="#121212"/>
<path d="M111.744 167.236C101.268 183.832 93.4333 208.06 90.5282 232.821L90 237.88L118.435 237.702L146.957 237.436L148.454 221.994C149.334 213.474 150.831 201.759 151.887 195.813C152.944 189.867 154 183.211 154.176 180.992L154.616 176.91L150.391 175.756C148.014 175.135 139.387 171.851 131.111 168.478C122.924 165.195 115.882 162.444 115.442 162.444C115.089 162.444 113.417 164.574 111.744 167.236Z" fill="#121212"/>
<path d="M312.371 101.651C312.635 102.361 315.012 105.999 317.653 109.816C320.206 113.632 323.992 119.933 325.928 123.838C330.154 132.358 337.549 150.906 337.549 152.947C337.549 155.166 339.925 154.811 351.018 151.261C365.983 146.38 370.121 144.694 370.121 143.363C370.121 141.144 348.289 120.998 339.573 115.141C331.65 109.816 314.396 100.32 312.547 100.32C312.195 100.32 312.019 100.941 312.371 101.651Z" fill="#121212"/>
<path d="M260.96 128.275V165.994H267.827C274.869 165.994 300.311 163.242 310.082 161.467L315.628 160.491L315.012 157.651C312.987 147.711 302.864 126.678 294.677 115.141C285.345 102.183 270.732 90.5572 263.689 90.5572H260.96V128.275Z" fill="#121212"/>
<path d="M230.853 91.7997C214.743 98.4559 199.513 118.513 187.54 148.599C184.987 155.166 183.667 159.426 184.195 159.959C185.604 161.379 212.894 165.106 226.011 165.727L238.071 166.26L237.895 128.275C237.719 103.87 237.279 90.2022 236.751 90.0247C236.311 89.8472 233.582 90.646 230.853 91.7997Z" fill="#121212"/>
<path d="M175.128 106.621C170.286 109.106 163.683 112.833 160.514 114.963C153.207 119.756 129.791 140.789 129.791 142.564C129.791 144.161 137.537 147.8 149.07 151.705C161.306 155.787 160.602 156.054 164.476 145.315C169.053 132.713 175.48 119.401 181.202 110.526C183.931 106.354 186.132 102.716 186.132 102.538C186.132 101.385 183.139 102.538 175.128 106.621Z" fill="#121212"/>
<path d="M374.282 441.651L359.118 420.225L362.508 417.826C363.173 417.425 363.869 417.295 364.597 417.435C365.318 417.567 366.115 418.002 366.985 418.739C367.85 419.467 368.631 420.324 369.329 421.31C369.967 422.212 370.47 423.14 370.838 424.094C371.206 425.048 371.351 425.923 371.272 426.718C372.093 426.695 372.966 427.041 373.89 427.755C374.823 428.462 375.731 429.439 376.613 430.685C377.324 431.689 377.897 432.687 378.332 433.677C378.761 434.657 379.01 435.472 379.078 436.121C379.147 436.771 379.067 437.358 378.838 437.883C378.619 438.401 378.226 438.861 377.658 439.262L374.282 441.651ZM366.976 429.257L369.026 427.805C369.584 427.41 369.903 427.003 369.983 426.584C370.098 426.056 369.994 425.396 369.672 424.606C369.349 423.815 368.826 422.908 368.102 421.885C367.398 420.89 366.73 420.113 366.098 419.556C365.475 418.992 364.935 418.662 364.477 418.567C364.019 418.473 363.382 418.617 362.564 419L360.667 420.343L366.976 429.257ZM374.678 440.199L377.055 438.558C377.475 438.066 377.665 437.457 377.626 436.731C377.586 436.005 377.421 435.249 377.131 434.464C376.84 433.679 376.356 432.807 375.678 431.849C374.928 430.789 374.173 429.92 373.414 429.243C372.649 428.556 371.989 428.165 371.433 428.07C370.877 427.975 370.311 428.131 369.734 428.539L367.53 430.099L374.678 440.199Z" fill="white"/>
<path d="M356.363 452.477L343.301 429.688L346.963 427.589C347.704 427.164 348.382 427.051 348.996 427.251C349.619 427.445 350.342 427.996 351.164 428.904C351.99 429.796 352.763 430.869 353.483 432.125C354.412 433.746 354.965 435.169 355.142 436.394C355.329 437.613 355.305 438.454 355.071 438.917C354.837 439.379 354.412 439.898 353.797 440.474L352.916 440.999L351.641 441.73L357.445 451.857L356.363 452.477ZM351.137 440.817L353.257 439.601C353.785 438.826 354.064 438.167 354.094 437.625C354.125 437.082 354.002 436.364 353.727 435.472C353.452 434.579 353.045 433.584 352.508 432.486C351.488 430.957 350.582 429.802 349.793 429.02C349.003 428.238 347.939 428.1 346.6 428.604L344.772 429.711L351.137 440.817Z" fill="white"/>
<path d="M331.901 446.781C332.333 447.736 332.985 448.016 333.857 447.621L337.158 446.127C337.947 445.77 338.566 446.09 339.017 447.086L342.597 454.996L343.048 455.992C343.349 456.657 343.451 457.311 343.355 457.954C343.269 458.594 342.867 459.101 342.148 459.476L338.848 460.97C338.372 461.135 337.86 461.054 337.312 460.727C336.764 460.4 336.369 459.941 336.126 459.35L333.759 454.119L334.849 453.625L336.836 458.016C337.146 458.701 337.464 459.182 337.789 459.46C338.115 459.738 338.579 459.741 339.181 459.468L340.707 458.778C341.319 458.5 341.686 458.109 341.808 457.604C341.929 457.099 341.849 456.535 341.567 455.912L338.336 448.896C337.925 447.906 337.264 447.605 336.351 447.993L333.549 449.261C332.469 449.75 331.61 449.288 330.971 447.877L327.983 441.275L327.532 440.279C327.232 439.615 327.124 438.963 327.21 438.324C327.307 437.68 327.714 437.17 328.432 436.795L331.733 435.301C332.333 435.08 332.876 435.147 333.362 435.502C333.848 435.857 334.212 436.33 334.454 436.921L336.822 442.152L335.732 442.646L333.745 438.255C333.435 437.57 333.117 437.089 332.791 436.811C332.465 436.533 332.001 436.53 331.399 436.803L329.251 437.775C328.877 437.944 328.671 438.263 328.633 438.73C328.604 439.193 328.731 439.736 329.013 440.359L331.45 445.784L331.901 446.781Z" fill="white"/>
<path d="M322.379 467.344L321.208 464.042L322.625 463.539L323.797 466.841L322.379 467.344Z" fill="white"/>
<path d="M301.583 473.419L294.924 448.063L296.271 447.674L306.15 465.646L301.097 446.406L302.354 446.076L309.021 471.465L307.963 471.743L297.559 452.848L302.872 473.08L301.583 473.419Z" fill="white"/>
<path d="M279.808 463.843L280.17 466.07L281.4 473.626C281.517 474.346 281.721 474.89 282.012 475.258C282.303 475.627 282.853 475.745 283.663 475.613L285.316 475.344C285.968 475.238 286.353 474.979 286.471 474.567C286.588 474.156 286.587 473.579 286.466 472.836L285.11 464.504L282.95 464.855L282.742 463.573L284.901 463.222L286.048 463.035L286.872 467.888L287.795 473.555C287.92 474.181 287.845 474.782 287.569 475.358C287.293 475.934 286.912 476.285 286.424 476.41L282.848 476.992C282.043 477.077 281.431 476.865 281.013 476.356C280.607 475.845 280.349 475.252 280.239 474.577L280.063 473.498L277.087 455.213L276.911 454.133C276.794 453.414 276.86 452.757 277.11 452.162C277.37 451.565 277.896 451.18 278.687 451.005L282.263 450.423C282.9 450.365 283.407 450.571 283.784 451.041C284.16 451.511 284.389 452.062 284.469 452.695L285.391 458.363L284.211 458.555L283.436 453.799C283.315 453.056 283.134 452.509 282.892 452.156C282.65 451.803 282.202 451.679 281.55 451.785L279.222 452.164C278.818 452.23 278.536 452.484 278.377 452.925C278.229 453.365 278.21 453.922 278.32 454.597L279.258 460.47L279.434 461.549L279.808 463.843Z" fill="white"/>
<path d="M263.423 452.633C265.351 461.263 265.985 470.012 265.326 478.882L264.168 478.969C262.505 470.228 261.871 461.478 262.264 452.72L263.423 452.633Z" fill="white"/>
<path d="M243.721 463.558C243.709 464.606 244.181 465.136 245.138 465.147L248.761 465.188C249.627 465.198 250.054 465.749 250.041 466.843L249.943 475.524L249.93 476.618C249.922 477.347 249.738 477.983 249.379 478.526C249.031 479.069 248.452 479.358 247.643 479.395L244.02 479.354C243.519 479.302 243.089 479.013 242.731 478.484C242.372 477.956 242.208 477.373 242.238 476.736L242.303 470.994L243.499 471.007L243.445 475.826C243.436 476.578 243.521 477.149 243.699 477.538C243.876 477.928 244.296 478.126 244.957 478.134L246.631 478.153C247.303 478.16 247.801 477.961 248.125 477.554C248.449 477.148 248.614 476.603 248.622 475.919L248.659 468.195C248.705 467.124 248.233 466.572 247.242 466.538L244.166 466.503C242.981 466.489 242.397 465.708 242.415 464.159L242.497 456.913L242.51 455.819C242.518 455.09 242.696 454.454 243.044 453.911C243.404 453.368 243.988 453.079 244.797 453.042L248.42 453.084C249.058 453.136 249.521 453.427 249.812 453.954C250.102 454.481 250.232 455.064 250.202 455.702L250.137 461.443L248.941 461.43L248.995 456.611C249.004 455.859 248.919 455.288 248.741 454.899C248.563 454.509 248.144 454.311 247.483 454.303L245.125 454.277C244.715 454.272 244.394 454.473 244.161 454.881C243.94 455.289 243.826 455.834 243.818 456.518L243.733 462.465L243.721 463.558Z" fill="white"/>
<path d="M220.987 477.578L223.782 451.511L231.242 452.311L231.097 453.499L224.98 452.843L223.823 463.633L229.464 464.238L229.321 465.58L223.679 464.975L222.451 476.428L228.772 477.106L228.685 478.403L220.987 477.578Z" fill="white"/>
<path d="M199.963 473.794L205.216 448.179L208.38 448.828C209.105 448.977 209.629 449.201 209.952 449.5C210.417 449.955 210.742 450.668 210.927 451.636C211.187 452.864 211.251 454.395 211.119 456.229C210.989 458.051 210.691 460.101 210.224 462.378C209.824 464.331 209.391 466.045 208.925 467.52C208.462 468.983 207.996 470.179 207.527 471.106C207.071 472.024 206.634 472.737 206.216 473.244C205.809 473.754 205.357 474.115 204.86 474.327C204.363 474.539 203.836 474.588 203.278 474.474L199.963 473.794ZM201.351 472.979L203.276 473.374C203.773 473.278 204.214 473.084 204.6 472.791C204.985 472.498 205.496 471.765 206.132 470.593C206.768 469.421 207.247 468.275 207.57 467.154C207.893 466.034 208.355 464.344 208.959 462.083C209.545 458.773 209.839 456.257 209.843 454.537C209.847 452.816 209.749 451.592 209.55 450.865C209.201 450.41 208.699 450.109 208.042 449.963L206.151 449.575L201.351 472.979Z" fill="white"/>
<path d="M181.688 458.724L181.992 457.727L191.033 460.478L190.729 461.476L181.688 458.724Z" fill="white"/>
<path d="M160.247 460.645L170.194 436.352L174.037 437.926C174.732 438.272 175.216 438.79 175.487 439.48C175.763 440.159 175.823 441.064 175.668 442.195C175.517 443.315 175.213 444.434 174.755 445.552C174.337 446.574 173.824 447.497 173.216 448.319C172.608 449.141 171.948 449.733 171.234 450.093C171.694 450.774 171.87 451.696 171.764 452.858C171.667 454.025 171.33 455.315 170.752 456.728C170.285 457.867 169.751 458.886 169.149 459.784C168.552 460.672 167.998 461.319 167.486 461.726C166.975 462.132 166.437 462.379 165.871 462.468C165.316 462.561 164.717 462.475 164.074 462.212L160.247 460.645ZM166.787 447.829L169.112 448.781C169.745 449.04 170.259 449.091 170.656 448.933C171.163 448.747 171.664 448.305 172.159 447.609C172.653 446.913 173.138 445.985 173.613 444.825C174.074 443.697 174.371 442.717 174.503 441.884C174.645 441.056 174.633 440.423 174.467 439.986C174.302 439.549 173.838 439.088 173.076 438.604L170.925 437.723L166.787 447.829ZM161.685 460.199L164.345 461.325C164.985 461.415 165.601 461.249 166.193 460.826C166.784 460.404 167.333 459.859 167.84 459.193C168.347 458.526 168.823 457.65 169.268 456.564C169.76 455.362 170.088 454.259 170.253 453.255C170.422 452.241 170.398 451.474 170.18 450.954C169.962 450.434 169.526 450.04 168.872 449.772L166.373 448.749L161.685 460.199Z" fill="white"/>
<path d="M141.513 451.338L153.714 428.134L160.354 431.626L159.782 432.677L154.337 429.813L149.286 439.418L154.308 442.059L153.68 443.254L148.658 440.613L143.297 450.808L148.924 453.767L148.365 454.941L141.513 451.338Z" fill="white"/>
<path d="M133.533 424.724L126.494 438.89L137.098 427.11L142.522 421.209L143.765 422.055L125.535 441.483L124.292 440.637L134.979 419.382L118.895 436.963L117.695 436.145L129.252 412.216L130.424 413.014L126.855 420.26L119.816 434.426L130.42 422.646L135.877 416.727L137.182 417.574L133.533 424.724Z" fill="white"/>
</g>
<defs>
<clipPath id="clip0_51_21">
<rect width="500" height="500" fill="white"/>
</clipPath>
</defs>
</svg>
