<?xml version="1.0" standalone="no"?>
<!DOCTYPE svg PUBLIC "-//W3C//DTD SVG 20010904//EN"
 "http://www.w3.org/TR/2001/REC-SVG-20010904/DTD/svg10.dtd">
<svg version="1.0" xmlns="http://www.w3.org/2000/svg"
 width="580.000000pt" height="580.000000pt" viewBox="0 0 580.000000 580.000000"
 preserveAspectRatio="xMidYMid meet">
<metadata>
Created by potrace 1.16, written by Peter Selinger 2001-2019
</metadata>
<g transform="translate(0.000000,580.000000) scale(0.100000,-0.100000)"
fill="#000000" stroke="none">
<path d="M2630 5794 c-14 -2 -65 -9 -115 -15 -790 -96 -1549 -560 -2007 -1229
-261 -380 -418 -787 -490 -1265 -18 -123 -18 -647 0 -770 99 -657 378 -1221
827 -1670 449 -449 1013 -728 1670 -827 123 -18 647 -18 770 0 401 61 758 184
1082 373 710 416 1209 1111 1376 1915 47 223 52 285 52 594 0 309 -5 371 -52
594 -233 1122 -1106 2003 -2225 2245 -214 46 -285 53 -578 56 -157 2 -296 1
-310 -1z m620 -839 c525 -89 985 -367 1314 -794 296 -384 456 -917 417 -1387
-38 -453 -173 -810 -437 -1155 -65 -86 -242 -267 -331 -341 -236 -193 -532
-341 -816 -407 -186 -44 -285 -55 -487 -55 -331 1 -611 63 -904 203 -702 333
-1146 1021 -1183 1831 -28 631 285 1292 804 1699 271 212 616 360 945 405 62
9 127 18 143 20 69 10 444 -3 535 -19z"/>
<path d="M2688 4676 c-183 -75 -356 -301 -492 -640 -29 -74 -44 -122 -38 -128
16 -16 326 -58 475 -65 l137 -6 -2 428 c-2 275 -7 429 -13 431 -5 2 -36 -7
-67 -20z"/>
<path d="M3030 4265 l0 -425 78 0 c80 0 369 31 480 51 l63 11 -7 32 c-23 112
-138 349 -231 479 -106 146 -272 277 -352 277 l-31 0 0 -425z"/>
<path d="M3614 4565 c3 -8 30 -49 60 -92 29 -43 72 -114 94 -158 48 -96 132
-305 132 -328 0 -25 27 -21 153 19 170 55 217 74 217 89 0 25 -248 252 -347
318 -90 60 -286 167 -307 167 -4 0 -6 -7 -2 -15z"/>
<path d="M2055 4509 c-55 -28 -130 -70 -166 -94 -83 -54 -349 -291 -349 -311
0 -18 88 -59 219 -103 139 -46 131 -49 175 72 52 142 125 292 190 392 31 47
56 88 56 90 0 13 -34 0 -125 -46z"/>
<path d="M1335 3826 c-119 -187 -208 -460 -241 -739 l-6 -57 323 2 324 3 17
174 c10 96 27 228 39 295 12 67 24 142 26 167 l5 46 -48 13 c-27 7 -125 44
-219 82 -93 37 -173 68 -178 68 -4 0 -23 -24 -42 -54z"/>
<path d="M4370 3853 c-30 -14 -127 -49 -215 -79 -88 -30 -163 -58 -167 -62 -5
-5 1 -55 11 -113 29 -157 42 -259 55 -419 l11 -145 329 -3 329 -2 -7 77 c-17
193 -80 413 -165 579 -82 160 -102 194 -115 193 -6 0 -36 -12 -66 -26z"/>
<path d="M2051 3523 c-29 -176 -41 -281 -44 -393 l-2 -95 380 0 380 0 0 270 0
270 -50 3 c-117 6 -383 35 -487 52 -170 30 -152 41 -177 -107z"/>
<path d="M3625 3640 c-107 -17 -316 -41 -450 -53 l-140 -12 -3 -273 -2 -272
382 2 383 3 3 54 c5 86 -41 488 -63 549 -5 13 -33 14 -110 2z"/>
<path d="M1092 2762 c-16 -42 31 -294 83 -452 33 -99 134 -302 181 -365 l22
-29 68 31 c75 34 317 123 334 123 6 0 19 4 29 9 17 9 16 19 -10 178 -15 92
-35 245 -44 338 -9 94 -18 171 -19 172 -1 1 -145 3 -320 5 -258 2 -320 0 -324
-10z"/>
<path d="M4365 2770 l-300 -5 -17 -175 c-10 -96 -29 -241 -43 -322 -14 -81
-25 -156 -25 -165 0 -13 16 -23 63 -36 77 -23 230 -79 320 -119 37 -16 72 -26
77 -23 16 10 98 168 146 281 58 139 100 281 120 405 20 130 17 164 -16 164
-14 0 -160 -2 -325 -5z"/>
<path d="M2004 2755 c-15 -39 53 -575 76 -599 5 -5 70 0 152 12 79 12 226 29
328 38 102 9 191 18 198 20 9 3 12 66 12 274 l0 270 -380 0 c-328 0 -381 -2
-386 -15z"/>
<path d="M3030 2500 l0 -270 23 -4 c12 -2 90 -9 174 -14 83 -6 224 -23 312
-38 88 -15 166 -24 174 -21 22 8 69 302 84 525 l6 92 -386 0 -387 0 0 -270z"/>
<path d="M2638 1959 c-216 -15 -488 -54 -488 -70 0 -19 85 -220 134 -320 117
-235 255 -389 407 -459 80 -36 75 -47 81 198 7 269 -3 655 -17 657 -5 1 -58
-1 -117 -6z"/>
<path d="M3037 1963 c-4 -3 -7 -199 -7 -435 l0 -428 28 0 c48 0 133 51 215
129 159 152 258 313 357 584 l29 78 -22 8 c-36 14 -301 50 -447 61 -160 12
-145 12 -153 3z"/>
<path d="M1865 1825 c-5 -2 -59 -19 -120 -38 -60 -20 -132 -45 -158 -56 -41
-18 -46 -23 -38 -39 16 -30 200 -202 281 -263 117 -88 344 -219 356 -206 3 3
-20 41 -50 86 -29 44 -71 116 -91 158 -35 73 -125 292 -140 341 -6 21 -16 25
-40 17z"/>
<path d="M3907 1823 c-2 -5 -12 -33 -22 -63 -51 -158 -138 -344 -211 -448 -42
-60 -52 -82 -37 -82 14 0 199 104 268 150 123 83 365 298 365 324 0 13 -36 28
-205 87 -108 38 -150 46 -158 32z"/>
</g>
</svg>
